<?xml version="1.0" encoding="UTF-8" standalone="no"?>
<svg
   xmlns:dc="http://purl.org/dc/elements/1.1/"
   xmlns:cc="http://creativecommons.org/ns#"
   xmlns:rdf="http://www.w3.org/1999/02/22-rdf-syntax-ns#"
   xmlns:svg="http://www.w3.org/2000/svg"
   xmlns="http://www.w3.org/2000/svg"
   xmlns:sodipodi="http://sodipodi.sourceforge.net/DTD/sodipodi-0.dtd"
   xmlns:inkscape="http://www.inkscape.org/namespaces/inkscape"
   sodipodi:docname="card_template.svg"
   inkscape:version="1.0beta1 (32d4812, 2019-09-19)"
   width="85mm"
   height="55mm"
   viewBox="0 0 85 55"
   version="1.1"
   id="svg86960">
  <defs
     id="defs86954" />
  <sodipodi:namedview
     inkscape:window-maximized="0"
     inkscape:window-y="23"
     inkscape:window-x="0"
     inkscape:window-height="907"
     inkscape:window-width="1600"
     showgrid="false"
     inkscape:document-rotation="0"
     inkscape:current-layer="layer1"
     inkscape:document-units="mm"
     inkscape:cy="115.03132"
     inkscape:cx="131.15276"
     inkscape:zoom="2.0425046"
     inkscape:pageshadow="2"
     inkscape:pageopacity="0.0"
     borderopacity="1.0"
     bordercolor="#666666"
     pagecolor="#ffffff"
     id="base" />
  <metadata
     id="metadata86957">
    <rdf:RDF>
      <cc:Work
         rdf:about="">
        <dc:format>image/svg+xml</dc:format>
        <dc:type
           rdf:resource="http://purl.org/dc/dcmitype/StillImage" />
        <dc:title></dc:title>
      </cc:Work>
    </rdf:RDF>
  </metadata>
  <g
     id="layer1"
     inkscape:groupmode="layer"
     inkscape:label="Layer 1">
    <path
       d="m 58.548672,7.586235 h 1.468004 V 7.349187 L 59.948948,7.040178 59.749997,6.80313 59.546813,6.667674 59.267435,6.654975 l -0.279378,0.080427 -0.241281,0.198951 -0.09313,0.198951 -0.104978,0.25398 -0.02667,0.266679 0.06646,0.321708 0.120217,0.292077 0.241281,0.2404344 0.224349,0.1062483 0.279378,0.026668 0.241281,-0.066458 0.228582,-0.1202172 m -2.908252,0.1735528 h 0.0127 l 0.266679,-0.066458 0.25398,-0.173553 0.156621,-0.2683722 0.06773,-0.292077 0.0127,-0.279378 -0.0381,-0.25398 L 57.654477,7.069809 57.519021,6.896256 57.332769,6.735402 57.133818,6.667674 56.947566,6.654975 56.731683,6.693072 56.532732,6.815829 56.359179,7.01478 56.266053,7.201032 56.187319,7.48041 v 0.215883 l 0.02624,0.249747 0.06519,0.228582 0.160854,0.2133432 0.186252,0.1468851 0.203184,0.07958 0.186252,0.013546 m -3.31041,-0.053336 V 5.973462 h 0.749241 l 0.304776,0.080427 0.228582,0.122757 0.156621,0.156621 0.190485,0.309009 0.06349,0.347106 v 0.21165 l -0.0127,0.279378 -0.0381,0.321708 -0.105825,0.224349 -0.190485,0.2814945 -0.292077,0.1731297 -0.279378,0.080427 -0.21165,0.013122 h -0.55029 m -4.000485,0.066458 V 6.667674 7.146003 l 0.186252,-0.186252 0.173553,-0.156621 0.135456,-0.080427 0.198951,-0.055029 0.131223,-0.012699 0.203184,0.055029 0.118524,0.076194 0.09313,0.135456 0.08043,0.186252 V 8.6410986 M 47.371821,8.6144307 V 5.681385 7.162935 l 0.198951,-0.215883 0.173553,-0.160854 0.25398,-0.105825 0.25398,-0.025398 0.292077,0.160854 0.105825,0.186252 0.05503,0.304776 v 1.3211193 m -3.026781,0 h 0.0127 l 0.266679,-0.066458 0.25398,-0.173553 0.156621,-0.2683722 0.06773,-0.292077 0.0127,-0.279378 -0.0381,-0.25398 L 46.317619,7.069809 46.182163,6.896256 45.995911,6.735402 45.79696,6.667674 45.610708,6.654975 45.394825,6.693072 45.195874,6.815829 45.022321,7.01478 44.929195,7.201032 44.850461,7.48041 v 0.215883 l 0.02624,0.249747 0.06519,0.228582 0.160854,0.2133432 0.186252,0.1468851 0.203184,0.07958 0.186252,0.013546 M 42.73126,8.280447 l 0.13207,0.160854 0.160854,0.1202172 0.21165,0.07958 0.266679,-0.03979 0.25398,-0.1731297 0.122757,-0.2535567 0.0254,-0.198951 V 5.935365 m 30.292515,44.370163 -0.09595,0.04431 h -0.12699 l -0.11288,-0.03527 -0.09877,-0.115702 -0.01693,-0.195847 v -0.914328 h -0.25906 0.685182 -0.426122 v -0.400724 m -1.565757,0.976403 h 0.97867 v -0.158032 l -0.04515,-0.206006 -0.132634,-0.158032 -0.135456,-0.0903 -0.186252,-0.0085 -0.186252,0.05362 -0.160854,0.132634 -0.06208,0.132634 -0.06999,0.16932 -0.01778,0.177786 0.04431,0.214472 0.08014,0.194718 0.160854,0.16029 0.149566,0.07083 0.186252,0.01778 0.160854,-0.04431 0.152388,-0.08015 m -2.384713,0.124488 v -1.315616 0.318886 l 0.124168,-0.124168 0.115702,-0.104414 0.0903,-0.05362 0.132634,-0.03669 0.08748,-0.0085 0.135456,0.03669 0.07902,0.0508 0.06208,0.0903 0.05362,0.124168 v 1.022128 m -1.663338,-0.159689 v 0.141947 h 0.142229 v -0.141947 h -0.142229 m -0.870943,0.150977 v -1.306868 0.400724 l 0.08184,-0.160854 0.124168,-0.160854 0.132634,-0.06208 0.124168,-0.01693 0.07902,0.0085 m -2.079367,0.603868 h 0.97867 v -0.158032 l -0.04515,-0.206006 -0.132634,-0.158032 -0.135456,-0.0903 -0.186252,-0.0085 -0.186252,0.05362 -0.160854,0.132634 -0.06208,0.132634 -0.06999,0.16932 -0.01778,0.177786 0.04431,0.214472 0.08015,0.194718 0.160854,0.16029 0.149566,0.07083 0.186252,0.01778 0.160854,-0.04431 0.152388,-0.08015 m -1.26434,0.0624 -0.09595,0.04431 h -0.12699 l -0.11288,-0.03527 -0.09877,-0.115702 -0.01693,-0.195847 v -0.914328 h -0.25906 0.685182 -0.426122 v -0.400724 m -1.611485,1.679645 v -1.315616 0.318886 l 0.124168,-0.124168 0.115702,-0.104414 0.0903,-0.05362 0.132634,-0.03669 0.08748,-0.0085 0.135456,0.03669 0.07902,0.0508 0.06208,0.0903 0.05362,0.124168 v 1.022128 m -1.591659,3.6e-5 v -1.30715 m -0.08015,-0.541824 v 0.1411 h 0.142229 v -0.1411 H 64.31831 m -1.085524,0.728076 -0.115702,0.67728 -0.1411,0.1411 -0.143922,0.07168 -0.16932,0.0087 -0.149566,-0.114291 -0.04515,-0.189074 0.05362,-0.2822 0.149566,-0.222938 0.206006,-0.107236 0.177786,0.03669 0.08748,0.07902 0.05362,0.107236 -0.07902,0.488206 0.01693,0.107236 0.152388,0.115138 0.203184,-0.01778 0.16932,-0.142511 0.115702,-0.186252 0.03669,-0.231404 -0.0085,-0.23987 -0.07337,-0.256802 -0.124168,-0.189074 -0.158032,-0.1411 -0.259624,-0.08748 -0.273734,-0.01975 -0.242692,0.04515 -0.273734,0.1411 -0.194718,0.189074 -0.135456,0.203184 -0.105825,0.26809 -0.03556,0.228582 v 0.19754 l 0.06237,0.265832 0.107236,0.213485 0.220116,0.195423 0.19754,0.08889 0.273734,0.05475 0.259624,-0.01129 0.23987,-0.123321 M 60.521297,49.66437 h 0.97867 v -0.158032 l -0.04515,-0.206006 -0.132634,-0.158032 -0.135456,-0.0903 -0.186252,-0.0085 -0.186252,0.05362 -0.160854,0.132634 -0.06208,0.132634 -0.06999,0.16932 -0.01778,0.177786 0.04431,0.214472 0.08015,0.194718 0.160854,0.16029 0.149566,0.07083 0.186252,0.01778 0.160854,-0.04431 0.152388,-0.08015 m -1.938847,0.11574 h 0.0085 l 0.177786,-0.0443 0.16932,-0.115702 0.104414,-0.178915 0.04515,-0.194718 0.0085,-0.186252 -0.0254,-0.16932 -0.06208,-0.149566 -0.0903,-0.115702 -0.124168,-0.107236 -0.132634,-0.04515 -0.124168,-0.0085 -0.143922,0.0254 -0.132634,0.08184 -0.115702,0.132634 -0.06208,0.124168 -0.05249,0.186252 v 0.143922 l 0.0175,0.166498 0.04346,0.152388 0.107236,0.142229 0.124168,0.09792 0.135456,0.05305 0.124168,0.009 M 58.324969,48.39447 v 1.955364 -0.267808 l -0.124168,0.125861 -0.16932,0.11542 -0.16932,0.04431 -0.1411,-0.02653 -0.143922,-0.06208 -0.1411,-0.151824 -0.08918,-0.203184 -0.01806,-0.248336 0.06208,-0.293488 0.152388,-0.222938 0.21165,-0.107236 0.16932,-0.01693 0.177786,0.06208 0.115702,0.07055 0.115702,0.107236 m -1.6718,0.93295 v 0.141947 h 0.142229 v -0.141947 h -0.142229 m -1.494654,0.159725 v -1.315616 0.318886 l 0.124168,-0.124168 0.115702,-0.104414 0.0903,-0.05362 0.132634,-0.03669 0.08748,-0.0085 0.135456,0.03669 0.07902,0.0508 0.06208,0.0903 0.05362,0.124168 v 1.022128 m -2.443969,-0.01774 v -1.955364 0.9877 l 0.132634,-0.143922 0.115702,-0.107236 0.16932,-0.07055 0.16932,-0.01693 0.194718,0.107236 0.07055,0.124168 0.03669,0.203184 v 0.880746 m -2.017858,-2e-6 h 0.0085 l 0.177786,-0.0443 0.16932,-0.115702 0.104414,-0.178915 0.04515,-0.194718 0.0085,-0.186252 -0.0254,-0.16932 -0.06208,-0.149566 -0.0903,-0.115702 -0.124168,-0.107236 -0.132634,-0.04515 -0.124168,-0.0085 -0.143922,0.0254 -0.132634,0.08184 -0.115702,0.132634 -0.06208,0.124168 -0.05249,0.186252 v 0.143922 l 0.0175,0.166498 0.04346,0.152388 0.107236,0.142229 0.124168,0.09792 0.135456,0.05305 0.124168,0.009 m -1.573261,0.578288 h 0.01778 l 0.09778,0.0254 0.133481,-0.0085 0.116266,-0.07902 0.03386,-0.143922 v -1.67909 m -0.07902,-0.524892 v 0.132634 h 0.1411 v -0.132634 h -0.1411 m -1.787584,0.603944 v 0.135456 h 0.133763 v -0.135456 h -0.133763 m 0,1.076875 v 0.133199 h 0.133763 V 50.207887 H 49.433922 M 48.774644,48.39447 v 1.839944 l 0.01693,0.06237 0.02822,0.03527 0.04515,0.02681 h 0.06208 m -0.872045,0.0087 v -1.30715 m -0.08015,-0.541824 v 0.1411 h 0.142229 v -0.1411 h -0.142229 m -1.412802,0.685746 0.186252,-0.107236 0.158032,-0.04515 0.160854,-0.01693 0.124168,0.04515 0.107236,0.09595 0.07055,0.143922 0.0085,0.194718 v 0.595442 0.239588 l -0.0085,-0.239588 -0.115702,0.07958 -0.124168,0.08918 -0.1411,0.06208 -0.160854,0.02653 -0.132634,-0.04431 -0.107236,-0.07111 -0.08015,-0.11542 v -0.170449 l 0.06321,-0.132634 0.1411,-0.115702 0.1411,-0.05362 0.16932,-0.05362 0.160854,-0.0254 0.09877,-0.0085 h 0.07902 m -3.138244,0.790757 v -1.30715 0.293488 l 0.124168,-0.107236 0.115702,-0.09595 0.107236,-0.07055 0.132634,-0.03669 0.115702,0.01693 0.07902,0.03669 0.0903,0.08748 0.06208,0.152388 0.01693,0.186252 v 0.844342 -0.985442 l 0.03669,-0.07337 0.186252,-0.166498 0.1411,-0.07337 0.115702,-0.03386 0.124168,0.03386 0.08184,0.04515 0.09595,0.115702 0.04515,0.231404 V 50.35886 M 42.7018,49.66437 h 0.97867 V 49.506338 L 43.63532,49.300332 43.502686,49.1423 43.36723,49.052 l -0.186252,-0.0085 -0.186252,0.05362 -0.160854,0.132634 -0.06208,0.132634 -0.06999,0.16932 -0.01778,0.177786 0.04431,0.214472 0.08015,0.194718 0.160854,0.16029 0.149566,0.07083 0.186252,0.01778 0.160854,-0.04431 0.152388,-0.08015 m 22.033103,-3.41206 0.03386,-0.471556 0.07055,-0.33864 0.09877,-0.293488 0.124168,-0.228582 0.132634,-0.214472 0.135456,-0.186252 h -1.022975 m -1.370186,1.038496 0.132634,-0.1411 0.160854,-0.124168 0.160854,-0.05362 h 0.177786 l 0.132634,0.06208 0.09877,0.0903 0.07055,0.166498 0.0254,0.19754 -0.04233,0.203184 -0.09877,0.16932 -0.152388,0.106672 -0.177786,0.02653 -0.158032,-0.05305 -0.143922,-0.106672 -0.115702,-0.176657 -0.05249,-0.251158 -0.01806,-0.265268 0.03556,-0.33864 0.06321,-0.203184 0.07902,-0.160854 0.132634,-0.132634 0.16932,-0.07055 0.16932,-0.01129 0.160854,0.05362 0.115702,0.09877 m -2.410387,1.386734 0.115984,0.09764 0.124168,0.07111 0.1411,0.05334 0.135456,0.0087 0.203184,-0.05305 0.1411,-0.115702 0.115702,-0.167627 0.04515,-0.19754 -0.0254,-0.231404 -0.09877,-0.177786 -0.203184,-0.115702 -0.206006,-0.01693 -0.149566,0.03669 -0.152388,0.07902 -0.01693,-0.0254 0.05362,-0.74783 h 0.728076 m -1.583253,1.73331 V 45.10654 l -0.826282,1.15702 h 1.11977 m -3.476332,-1.004632 0.143358,-0.107236 0.186252,-0.08184 h 0.149566 l 0.160854,0.04515 0.132634,0.107236 0.06208,0.1411 0.02822,0.16932 -0.04515,0.152388 -0.152388,0.115702 -0.166498,0.08748 -0.143922,0.02822 h -0.107236 0.135456 l 0.1411,0.01693 0.1411,0.05362 0.152388,0.115702 0.07055,0.107236 0.02822,0.124168 -0.0085,0.132634 -0.02822,0.107236 -0.08748,0.123886 -0.12699,0.07986 -0.158032,0.04431 h -0.16932 l -0.160854,-0.04431 -0.159443,-0.08889 -0.09764,-0.08946 m -1.378061,-1.289646 0.116831,-0.11288 0.1411,-0.0903 0.177786,-0.04515 0.152388,0.02822 0.158032,0.07902 0.09877,0.132634 0.04515,0.19754 -0.01129,0.166498 -0.08748,0.206006 -0.160854,0.231404 -0.194718,0.23987 -0.177786,0.186252 -0.160854,0.177786 -0.0793,0.08889 h 1.004914 m -1.910601,-1.59867 -0.293488,0.0085 0.301954,-0.115702 v 1.705899 h -0.445876 0.880464 m -2.932208,0.514981 0.152388,-0.283893 0.115702,-0.302236 0.0508,-0.294335 0.03669,-0.364038 -0.04515,-0.355572 -0.03386,-0.231404 -0.06208,-0.21165 -0.107236,-0.214472 -0.107236,-0.203184 m -1.343399,1.286832 0.132634,-0.1411 0.160854,-0.124168 0.160854,-0.05362 h 0.177786 l 0.132634,0.06208 0.09877,0.0903 0.07055,0.166498 0.0254,0.19754 -0.04233,0.203184 -0.09877,0.16932 -0.152388,0.106672 -0.177786,0.02653 -0.158032,-0.05305 -0.143922,-0.106672 -0.115702,-0.176657 -0.05249,-0.251158 -0.01806,-0.265268 0.03556,-0.33864 0.06321,-0.203184 0.07902,-0.160854 0.132634,-0.132634 0.16932,-0.07055 0.16932,-0.01129 0.160854,0.05362 0.115702,0.09877 m -2.331088,0.914331 0.132634,-0.1411 0.160854,-0.124168 0.160854,-0.05362 h 0.177786 l 0.132634,0.06208 0.09877,0.0903 0.07055,0.166498 0.0254,0.19754 -0.04233,0.203184 -0.09877,0.16932 -0.152388,0.106672 -0.177786,0.02653 -0.158032,-0.05305 -0.143922,-0.106672 -0.115702,-0.176657 -0.05249,-0.251158 -0.01806,-0.265268 0.03556,-0.33864 0.06321,-0.203184 0.07902,-0.160854 0.132634,-0.132634 0.16932,-0.07055 0.16932,-0.01129 0.160854,0.05362 0.115702,0.09877 m -2.331087,0.914331 0.132634,-0.1411 0.160854,-0.124168 0.160854,-0.05362 h 0.177786 l 0.132634,0.06208 0.09877,0.0903 0.07055,0.166498 0.0254,0.19754 -0.04233,0.203184 -0.09877,0.16932 -0.152388,0.106672 -0.177786,0.02653 -0.158032,-0.05305 -0.143922,-0.106672 -0.115702,-0.176657 -0.05249,-0.251158 -0.01806,-0.265268 0.03556,-0.33864 0.06321,-0.203184 0.07902,-0.160854 0.132634,-0.132634 0.16932,-0.07055 0.16932,-0.01129 0.160854,0.05362 0.115702,0.09877 m -1.343345,2.079817 -0.1411,-0.266679 -0.124168,-0.346542 -0.04515,-0.213625 -0.0254,-0.31042 v -0.293488 l 0.04233,-0.256802 0.06491,-0.251158 0.09595,-0.265268 0.07902,-0.152388 0.06491,-0.08748 m -2.179865,0.745006 v 0.135456 h 0.133763 V 45.603212 H 46.97859 m 0,1.076875 v 0.133199 h 0.133763 V 46.680087 H 46.97859 M 46.319313,44.86667 v 1.839944 l 0.01693,0.06237 0.02822,0.03527 0.04515,0.02681 h 0.06208 M 45.571425,44.86667 v 1.839944 l 0.01693,0.06237 0.02822,0.03527 0.04515,0.02681 h 0.06208 M 44.033888,46.13657 h 0.97867 v -0.158032 l -0.04515,-0.206006 -0.132634,-0.158032 -0.135456,-0.0903 -0.186252,-0.0085 -0.186252,0.05362 -0.160854,0.132634 -0.06208,0.132634 -0.06999,0.16932 -0.01778,0.177786 0.04431,0.214472 0.08015,0.194718 0.160854,0.16029 0.149566,0.07083 0.186252,0.01778 0.160854,-0.04431 0.152388,-0.08015 m -1.332098,-0.03524 -0.143922,0.106672 -0.21165,0.0443 -0.19754,-0.02681 L 42.86209,46.671057 42.746388,46.483676 42.7018,46.26356 v -0.231404 l 0.06999,-0.214472 0.143922,-0.16932 0.16932,-0.09595 0.186252,-0.02822 0.158032,0.02822 0.107236,0.0508 0.04515,0.05362 m 20.297463,-5.872622 v -1.78689 h 0.632128 l 0.160854,0.04515 0.115702,0.08748 0.08748,0.115702 0.03669,0.177786 -0.0085,0.160854 -0.07337,0.177786 -0.132634,0.107236 -0.186252,0.07055 -0.21165,0.0085 h -0.428944 m -1.68821,0.57848 0.15013,0.124168 0.143922,0.07111 0.177786,0.03556 0.203184,0.0087 0.222938,-0.08889 0.149566,-0.133763 0.05362,-0.177786 -0.0085,-0.158032 -0.09595,-0.160854 -0.206006,-0.132634 -0.364038,-0.160854 -0.203184,-0.132634 -0.107236,-0.143922 -0.0085,-0.177786 0.07055,-0.186252 0.203184,-0.124168 0.19754,-0.02822 0.186252,0.01975 0.1411,0.07055 0.132634,0.09877 m -3.547392,1.634553 v -1.315616 0.318886 l 0.124168,-0.124168 0.115702,-0.104414 0.0903,-0.05362 0.132634,-0.03669 0.08748,-0.0085 0.135456,0.03669 0.07902,0.0508 0.06208,0.0903 0.05362,0.124168 v 1.022128 m -3.048193,-1.31558 0.389718,1.333536 h 0.03669 l 0.372504,-1.333536 h 0.05362 l 0.375326,1.333536 h 0.03386 l 0.383792,-1.333536 m -2.587899,1.306868 h 0.0085 l 0.177786,-0.04431 0.16932,-0.115702 0.104414,-0.178915 0.04515,-0.194718 0.0085,-0.186252 -0.0254,-0.16932 -0.06208,-0.149566 -0.0903,-0.115702 -0.124168,-0.107236 -0.132634,-0.04515 -0.124168,-0.0085 -0.143922,0.0254 -0.132634,0.08184 -0.115702,0.132634 -0.06208,0.124168 -0.05249,0.186252 v 0.143922 l 0.0175,0.166498 0.04346,0.152388 0.107236,0.142229 0.124168,0.09792 0.135456,0.05305 0.124168,0.009 m -0.908838,-0.05327 -0.09595,0.04431 h -0.12699 l -0.11288,-0.03527 -0.09877,-0.115702 -0.01693,-0.195847 v -0.914328 h -0.25906 0.685182 -0.426122 v -0.400724 m -1.539502,0.372495 0.534769,1.342849 m 0.459986,-1.334383 -0.55029,1.565646 -0.06208,0.133198 -0.08748,0.09877 -0.107236,0.06208 h -0.187663 m -1.172654,-0.56101 v -1.981608 m 0.781694,0.674458 -0.773228,0.934082 m 0.364038,-0.445876 0.50796,0.818944 m -2.543305,-0.257366 0.15013,0.124168 0.143922,0.07111 0.177786,0.03556 0.203184,0.0087 0.222938,-0.08889 0.149566,-0.133763 0.05362,-0.177786 -0.0085,-0.158032 -0.09595,-0.160854 -0.206006,-0.132634 -0.364038,-0.160854 -0.203184,-0.132634 -0.107236,-0.143922 -0.0085,-0.177786 0.07055,-0.186252 0.203184,-0.124168 0.19754,-0.02822 0.186252,0.01975 0.1411,0.07055 0.132634,0.09877 m -3.57306,1.403714 0.115984,0.09764 0.124168,0.07111 0.1411,0.05334 0.135456,0.0087 0.203184,-0.05305 0.1411,-0.115702 0.115702,-0.167627 0.04515,-0.19754 -0.0254,-0.231404 -0.09877,-0.177786 -0.203184,-0.115702 -0.206006,-0.01693 -0.149566,0.03669 -0.152388,0.07902 -0.01693,-0.0254 0.05362,-0.74783 h 0.728076 m -1.583253,1.73331 V 38.05094 l -0.826282,1.15702 h 1.11977 m -2.409533,-1.004632 0.143358,-0.107236 0.186252,-0.08184 h 0.149566 l 0.160854,0.04515 0.132634,0.107236 0.06208,0.1411 0.02822,0.16932 -0.04515,0.152388 -0.152388,0.115702 -0.166498,0.08748 -0.143922,0.02822 h -0.107236 0.135456 l 0.1411,0.01693 0.1411,0.05362 0.152388,0.115702 0.07055,0.107236 0.02822,0.124168 -0.0085,0.132634 -0.02822,0.107236 -0.08748,0.123886 -0.12699,0.07986 -0.158032,0.04431 h -0.16932 l -0.160854,-0.04431 -0.159443,-0.08889 -0.09764,-0.08946 m -1.378061,-1.289646 0.116831,-0.11288 0.1411,-0.0903 0.177786,-0.04515 0.152388,0.02822 0.158032,0.07902 0.09877,0.132634 0.04515,0.19754 -0.01129,0.166498 -0.08748,0.206006 -0.160854,0.231404 -0.194718,0.23987 -0.177786,0.186252 -0.160854,0.177786 -0.0793,0.08889 h 1.004914 m -1.910601,-1.59867 -0.293488,0.0085 0.301954,-0.115702 v 1.705899 h -0.445876 0.880464 m 14.695364,-3.492177 v -1.306868 0.400724 l 0.08184,-0.160854 0.124168,-0.160854 0.132634,-0.06208 0.124168,-0.01693 0.07902,0.0085 m -2.302896,1.262805 v -1.734119 h 0.499494 l 0.203184,0.05362 0.152388,0.08184 0.104414,0.104414 0.12699,0.206006 0.04233,0.231404 v 0.1411 l -0.0085,0.186252 -0.0254,0.214472 -0.07055,0.149566 -0.12699,0.187663 -0.194718,0.11542 -0.186252,0.05362 -0.1411,0.0087 h -0.36686 M 53.96528,35.55327 h 0.97867 V 35.395238 L 54.8988,35.189232 54.766166,35.0312 54.63071,34.9409 l -0.186252,-0.0085 -0.186252,0.05362 -0.160854,0.132634 -0.06208,0.132634 -0.06999,0.16932 -0.01778,0.177786 0.04431,0.214472 0.08015,0.194718 0.160854,0.16029 0.149566,0.07083 0.186252,0.01778 0.160854,-0.04431 0.152388,-0.08015 m -1.332098,-0.03524 -0.143922,0.106672 -0.21165,0.0443 -0.19754,-0.02681 L 52.793482,36.087751 52.67778,35.90037 52.63319,35.680254 V 35.44885 l 0.06999,-0.214472 0.143922,-0.16932 0.16932,-0.09595 0.186252,-0.02822 0.158032,0.02822 0.107236,0.0508 0.04515,0.05362 m -2.26618,0.01976 0.186252,-0.107236 0.158032,-0.04515 0.160854,-0.01693 0.124168,0.04515 0.107236,0.09595 0.07055,0.143922 0.0085,0.194718 v 0.595442 0.239588 l -0.0085,-0.239588 -0.115702,0.07958 -0.124168,0.08918 -0.1411,0.06208 -0.160854,0.02653 -0.132634,-0.04431 -0.107236,-0.07111 -0.08014,-0.11542 v -0.170449 l 0.06321,-0.132634 0.1411,-0.115702 0.1411,-0.05362 0.16932,-0.05362 0.160854,-0.0254 0.09877,-0.0085 h 0.07902 m -2.381899,1.385635 v -1.910494 0.285022 l 0.149566,-0.152388 0.177786,-0.09595 0.152388,-0.02822 h 0.186252 l 0.143922,0.08184 0.124168,0.177786 0.06208,0.203184 v 0.231404 l -0.02822,0.194718 -0.09595,0.204877 -0.143922,0.133481 -0.107236,0.05334 -0.166498,0.0087 -0.135456,-0.02653 -0.149566,-0.08015 -0.143922,-0.09764 m -1.688234,-0.03522 0.15013,0.124168 0.143922,0.07111 0.177786,0.03556 0.203184,0.0087 0.222938,-0.08889 0.149566,-0.133763 0.05362,-0.177786 -0.0085,-0.158032 -0.09595,-0.160854 -0.206006,-0.132634 -0.364038,-0.160854 -0.203184,-0.132634 -0.107236,-0.143922 -0.0085,-0.177786 0.07055,-0.186252 0.203184,-0.124168 0.19754,-0.02822 0.186252,0.01975 0.1411,0.07055 0.132634,0.09877 m -3.047885,1.625805 0.16932,-0.03556 0.177786,-0.177786 0.07902,-0.187663 0.03669,-0.21165 0.01693,-0.293488 -0.01693,-0.276556 -0.06491,-0.265268 -0.08748,-0.16932 -0.1411,-0.107236 -0.12699,-0.04515 -0.104414,0.0085 -0.16932,0.09877 -0.115702,0.160854 -0.08043,0.256802 -0.02681,0.26809 -0.0087,0.265268 0.03556,0.248336 0.08889,0.249747 0.107236,0.11542 0.107236,0.08889 0.124168,0.009 m -1.903318,-1.52134 0.116831,-0.11288 0.1411,-0.0903 0.177786,-0.04515 0.152388,0.02822 0.158032,0.07902 0.09877,0.132634 0.04515,0.19754 -0.01129,0.166498 -0.08748,0.206006 -0.160854,0.231404 -0.194718,0.23987 -0.177786,0.186252 -0.160854,0.177786 -0.0793,0.08889 h 1.004914 m -1.698951,0.0443 V 34.52324 l -0.826282,1.15702 h 1.11977 M 60.8565,30.75557 v 1.955364 -0.267808 l -0.124168,0.125861 -0.16932,0.11542 -0.16932,0.04431 -0.1411,-0.02653 -0.143922,-0.06208 -0.1411,-0.151824 -0.08918,-0.203184 -0.01806,-0.248336 0.06208,-0.293488 0.152388,-0.222938 0.21165,-0.107236 0.16932,-0.01693 0.177786,0.06208 0.115702,0.07055 0.115702,0.107236 m -1.343337,1.030591 -0.09595,0.04431 h -0.12699 l -0.11288,-0.03527 -0.09877,-0.115702 -0.01693,-0.195847 v -0.914328 h -0.25906 0.685182 -0.426122 V 31.049067 M 57.664637,30.92489 v 1.759517 h 0.88893 m -2.630242,0.01778 h -0.107236 v -0.142229 h 0.107236 l 0.04515,0.160007 -0.01129,0.133481 -0.05362,0.11542 -0.07055,0.07111 -0.0793,0.07196 m -1.004466,-0.391971 h 0.0085 l 0.177786,-0.0443 0.16932,-0.115702 0.104414,-0.178915 0.04515,-0.194718 0.0085,-0.186252 -0.0254,-0.16932 -0.06208,-0.149566 -0.0903,-0.115702 -0.124168,-0.107236 -0.132634,-0.04515 -0.124168,-0.0085 -0.143922,0.0254 -0.132634,0.08184 -0.115702,0.132634 -0.06208,0.124168 -0.05249,0.186252 v 0.143922 l 0.0175,0.166498 0.04346,0.152388 0.107236,0.142229 0.124168,0.09792 0.135456,0.05305 0.124168,0.009 m -1.004841,-0.222031 -0.186252,0.142229 -0.251158,0.08861 -0.248336,-0.03556 -0.231404,-0.124168 -0.177786,-0.213343 -0.08748,-0.222938 -0.02709,-0.335818 0.02709,-0.313242 0.115702,-0.256802 0.177786,-0.194718 0.203184,-0.09877 0.231404,-0.01693 0.206006,0.04233 0.1411,0.0903 0.04515,0.05362 m -2.585167,1.608261 -0.206006,-0.08889 -0.222938,-0.187381 -0.231404,-0.220116 -0.149566,-0.189074 -0.186252,-0.293488 -0.0903,-0.21165 -0.0254,-0.276556 0.0254,-0.158032 0.09877,-0.12699 0.1411,-0.05362 0.16932,0.02822 0.09877,0.08748 0.04515,0.143922 -0.02822,0.149566 -0.08748,0.152388 -0.115702,0.09877 -0.33864,0.256802 -0.115702,0.107236 -0.106672,0.1411 -0.05334,0.152388 0.02681,0.16932 0.08805,0.185405 0.177786,0.106672 0.222938,0.04431 0.16932,-0.04431 0.194718,-0.11542 0.143922,-0.168191 0.124168,-0.16932 0.09595,-0.222938 0.07337,-0.194718 m -3.798622,0.914893 v -1.315616 0.318886 l 0.124168,-0.124168 0.115702,-0.104414 0.0903,-0.05362 0.132634,-0.03669 0.08748,-0.0085 0.135456,0.03669 0.07902,0.0508 0.06208,0.0903 0.05362,0.124168 v 1.022128 M 45.707464,32.02547 h 0.97867 v -0.158032 l -0.04515,-0.206006 -0.132634,-0.158032 -0.135456,-0.0903 -0.186252,-0.0085 -0.186252,0.05362 -0.160854,0.132634 -0.06208,0.132634 -0.06999,0.16932 -0.01778,0.177786 0.04431,0.214472 0.08014,0.194718 0.160854,0.16029 0.149566,0.07083 0.186252,0.01778 0.160854,-0.04431 0.152388,-0.08015 m -1.521113,0.124488 v -1.30715 m -0.08014,-0.541824 v 0.1411 h 0.142229 v -0.1411 H 45.022797 M 44.363515,30.75557 v 1.839944 l 0.01693,0.06237 0.02822,0.03527 0.04515,0.02681 h 0.06208 m -1.947293,0.0087 0.665992,-1.823576 0.392258,1.148554 h -0.801448 0.801448 l 0.23987,0.675022"
       style="opacity:1;fill:none;stroke:#000000;stroke-width:0.000716224in;stroke-linecap:round;stroke-linejoin:round;stop-opacity:1"
       id="path89780" />
  </g>
</svg>
