<?xml version="1.0" encoding="utf-8"?>
<!-- Generator: Adobe Illustrator 26.0.3, SVG Export Plug-In . SVG Version: 6.00 Build 0)  -->
<svg version="1.1" id="Layer_1" xmlns="http://www.w3.org/2000/svg" xmlns:xlink="http://www.w3.org/1999/xlink" x="0px" y="0px"
	 viewBox="0 0 378.1 204" style="enable-background:new 0 0 378.1 204;" xml:space="preserve">
<style type="text/css">
	.st0{font-family:'MyriadPro-Regular';}
	.st1{font-size:12px;}
	.st2{fill:none;stroke:#000000;stroke-miterlimit:10;}
	.st3{fill:none;stroke:#000000;stroke-miterlimit:10;stroke-dasharray:2.7265,2.7265;}
</style>
<text transform="matrix(1 0 0 1 107.7559 138.4495)" class="st0 st1">circle</text>
<text transform="matrix(1 0 0 1 195.6296 138.4495)" class="st0 st1">line</text>
<text transform="matrix(1 0 0 1 277.7949 40.0633)" class="st0 st1">show</text>
<rect x="136" y="8.9" class="st2" width="56.7" height="56.7"/>
<rect x="93.6" y="107.3" class="st2" width="56.7" height="56.7"/>
<rect x="178.6" y="107.3" class="st2" width="56.7" height="56.7"/>
<rect x="263.9" y="8.9" class="st2" width="56.7" height="56.7"/>
<g>
	<g>
		<line class="st2" x1="22.7" y1="37.2" x2="129" y2="37.2"/>
		<g>
			<polygon points="136,37.2 126.1,41.3 128.4,37.2 126.1,33.2 			"/>
		</g>
	</g>
</g>
<g>
	<g>
		<line class="st2" x1="192.7" y1="37.2" x2="256.6" y2="37.2"/>
		<g>
			<polygon points="263.6,37.2 253.7,41.3 256,37.2 253.7,33.2 			"/>
		</g>
	</g>
</g>
<text transform="matrix(1 0 0 1 154.266 40.0633)" class="st0 st1">grid</text>
<polyline class="st2" points="87.9,175.3 87.9,183.8 240.9,183.8 240.9,175.3 "/>
<text transform="matrix(1 0 0 1 121.8899 197.9766)" class="st0 st1">nested commands</text>
<g>
	<g>
		<line class="st2" x1="150.3" y1="135.6" x2="171.6" y2="135.6"/>
		<g>
			<polygon points="178.6,135.6 168.7,139.7 171,135.6 168.7,131.5 			"/>
		</g>
	</g>
</g>
<g>
	<g>
		<polyline class="st2" points="150.2,65.6 150.2,84.2 70.2,84.2 70.2,135.6 86.5,135.6 		"/>
		<g>
			<polygon points="93.5,135.6 83.6,139.7 86,135.6 83.6,131.5 			"/>
		</g>
	</g>
</g>
<line class="st2" x1="320.7" y1="37.2" x2="349" y2="37.2"/>
<g>
	<g>
		<line class="st2" x1="349" y1="37.2" x2="350.5" y2="37.2"/>
		<line class="st3" x1="353.3" y1="37.2" x2="362.8" y2="37.2"/>
		<line class="st2" x1="364.2" y1="37.2" x2="365.7" y2="37.2"/>
	</g>
</g>
<g>
	<g>
		<line class="st2" x1="6" y1="37.2" x2="7.5" y2="37.2"/>
		<line class="st3" x1="10.3" y1="37.2" x2="19.8" y2="37.2"/>
		<line class="st2" x1="21.2" y1="37.2" x2="22.7" y2="37.2"/>
	</g>
</g>
<g>
	<g>
		<polyline class="st2" points="235.3,135.7 255.1,135.6 255.1,83.7 182.9,84.2 182.9,72.7 		"/>
		<g>
			<polygon points="182.9,65.6 187,75.6 182.9,73.2 178.8,75.6 			"/>
		</g>
	</g>
</g>
</svg>
